<svg width="24" height="25" viewBox="0 0 24 25" fill="none" xmlns="http://www.w3.org/2000/svg">
<path d="M4 18.5C3.71667 18.5 3.47917 18.4042 3.2875 18.2125C3.09583 18.0208 3 17.7833 3 17.5C3 17.2167 3.09583 16.9792 3.2875 16.7875C3.47917 16.5958 3.71667 16.5 4 16.5H20C20.2833 16.5 20.5208 16.5958 20.7125 16.7875C20.9042 16.9792 21 17.2167 21 17.5C21 17.7833 20.9042 18.0208 20.7125 18.2125C20.5208 18.4042 20.2833 18.5 20 18.5H4ZM4 13.5C3.71667 13.5 3.47917 13.4042 3.2875 13.2125C3.09583 13.0208 3 12.7833 3 12.5C3 12.2167 3.09583 11.9792 3.2875 11.7875C3.47917 11.5958 3.71667 11.5 4 11.5H20C20.2833 11.5 20.5208 11.5958 20.7125 11.7875C20.9042 11.9792 21 12.2167 21 12.5C21 12.7833 20.9042 13.0208 20.7125 13.2125C20.5208 13.4042 20.2833 13.5 20 13.5H4ZM4 8.5C3.71667 8.5 3.47917 8.40417 3.2875 8.2125C3.09583 8.02083 3 7.78333 3 7.5C3 7.21667 3.09583 6.97917 3.2875 6.7875C3.47917 6.59583 3.71667 6.5 4 6.5H20C20.2833 6.5 20.5208 6.59583 20.7125 6.7875C20.9042 6.97917 21 7.21667 21 7.5C21 7.78333 20.9042 8.02083 20.7125 8.2125C20.5208 8.40417 20.2833 8.5 20 8.5H4Z" fill="#005AA9"/>
</svg>
