<svg width="14" height="14" viewBox="0 0 14 14" fill="none" xmlns="http://www.w3.org/2000/svg">
<path d="M8.16239 10.4872L6.61253 12.037C5.99596 12.6536 5.15971 13 4.28775 13C3.41578 13 2.57953 12.6536 1.96296 12.037C1.34639 11.4205 1 10.5842 1 9.71225C1 8.84029 1.34639 8.00404 1.96296 7.38746L3.51282 5.83761M5.83761 3.51282L7.38746 1.96296C8.00404 1.34639 8.84029 1 9.71225 1C10.5842 1 11.4205 1.34639 12.037 1.96296C12.6536 2.57953 13 3.41578 13 4.28775C13 5.15971 12.6536 5.99596 12.037 6.61254L10.4872 8.16239M4.75488 9.24512L9.29355 4.70645" stroke="#005AA9" stroke-width="1.4" stroke-linecap="round" stroke-linejoin="round"/>
</svg>
