<svg width="32" height="32" viewBox="0 0 32 32" fill="none" xmlns="http://www.w3.org/2000/svg">
<rect width="32" height="32" rx="16" fill="#0075C9"/>
<path d="M23.8511 8.14791C23.9216 8.21856 23.9698 8.30836 23.9897 8.40618C24.0097 8.50399 24.0004 8.60551 23.9631 8.69811L18.035 23.5198C17.9828 23.6503 17.8955 23.7639 17.7829 23.8481C17.6703 23.9322 17.5366 23.9836 17.3966 23.9967C17.2567 24.0098 17.1158 23.9839 16.9896 23.9221C16.8633 23.8602 16.7566 23.7648 16.6811 23.6462L13.4435 18.5568L8.35479 15.3188C8.23592 15.2434 8.14019 15.1366 8.07816 15.0102C8.01614 14.8838 7.99023 14.7428 8.0033 14.6026C8.01637 14.4624 8.0679 14.3286 8.15222 14.2158C8.23653 14.1031 8.35035 14.0158 8.48111 13.9637L23.301 8.03686C23.3935 7.99958 23.4951 7.99033 23.5929 8.01025C23.6907 8.03018 23.7805 8.0784 23.8511 8.14893V8.14791ZM14.4602 18.2593L17.273 22.6792L22.0947 10.6238L14.4602 18.2593ZM21.3745 9.90345L9.32057 14.7258L13.7409 17.5379L21.3745 9.90345Z" fill="white"/>
</svg>
